<svg width="124" height="124" viewBox="0 0 124 124" fill="none" xmlns="http://www.w3.org/2000/svg">
<rect x="0.5" y="0.5" width="123" height="123" fill="#CCDBDC" stroke="#0075A2"/>
<path d="M15.9531 4.9375C16.3516 4.9375 16.6328 5.02539 16.7969 5.20117C16.9727 5.36523 17.0605 5.64648 17.0605 6.04492V24.3965H22C22.2812 24.3965 22.498 24.4492 22.6504 24.5547C22.8027 24.6484 22.9141 24.8242 22.9844 25.082C23.0664 25.3398 23.1074 25.7148 23.1074 26.207C23.1074 26.6992 23.0664 27.0742 22.9844 27.332C22.9141 27.5898 22.8027 27.7656 22.6504 27.8594C22.498 27.9531 22.2812 28 22 28H7.86719C7.58594 28 7.36914 27.9531 7.2168 27.8594C7.06445 27.7656 6.94727 27.5898 6.86523 27.332C6.79492 27.0742 6.75977 26.6992 6.75977 26.207C6.75977 25.7148 6.79492 25.3398 6.86523 25.082C6.94727 24.8242 7.06445 24.6484 7.2168 24.5547C7.36914 24.4492 7.58594 24.3965 7.86719 24.3965H12.666V8.54102H8.57031C8.28906 8.54102 8.07227 8.49414 7.91992 8.40039C7.76758 8.30664 7.65039 8.13086 7.56836 7.87305C7.49805 7.61523 7.46289 7.24023 7.46289 6.74805C7.46289 6.25586 7.49805 5.88086 7.56836 5.62305C7.65039 5.36523 7.76758 5.18945 7.91992 5.0957C8.07227 4.99023 8.28906 4.9375 8.57031 4.9375H15.9531ZM36.3789 11.3711C38.1602 11.3711 39.7188 11.7344 41.0547 12.4609C42.3906 13.1875 43.416 14.1953 44.1309 15.4844C44.8574 16.7734 45.2207 18.2383 45.2207 19.8789C45.2207 21.5195 44.8574 22.9844 44.1309 24.2734C43.416 25.5625 42.3906 26.5703 41.0547 27.2969C39.7188 28.0234 38.1602 28.3867 36.3789 28.3867C34.5977 28.3867 33.0391 28.0234 31.7031 27.2969C30.3672 26.5703 29.3359 25.5625 28.6094 24.2734C27.8945 22.9844 27.5371 21.5195 27.5371 19.8789C27.5371 18.2383 27.8945 16.7734 28.6094 15.4844C29.3359 14.1953 30.3672 13.1875 31.7031 12.4609C33.0391 11.7344 34.5977 11.3711 36.3789 11.3711ZM36.3789 15.3613C35.5352 15.3613 34.8027 15.5488 34.1816 15.9238C33.5605 16.2871 33.0801 16.8086 32.7402 17.4883C32.4121 18.168 32.248 18.9648 32.248 19.8789C32.248 20.793 32.4121 21.5898 32.7402 22.2695C33.0801 22.9492 33.5605 23.4766 34.1816 23.8516C34.8027 24.2148 35.5352 24.3965 36.3789 24.3965C37.2227 24.3965 37.9551 24.2148 38.5762 23.8516C39.1973 23.4766 39.6719 22.9492 40 22.2695C40.3398 21.5898 40.5098 20.793 40.5098 19.8789C40.5098 18.9648 40.3398 18.168 40 17.4883C39.6719 16.8086 39.1973 16.2871 38.5762 15.9238C37.9551 15.5488 37.2227 15.3613 36.3789 15.3613ZM56.4531 11.3711C57.5664 11.3711 58.5801 11.6055 59.4941 12.0742C60.4082 12.543 61.1699 13.2168 61.7793 14.0957V12.8652C61.7793 12.4668 61.8613 12.1855 62.0254 12.0215C62.2012 11.8457 62.4883 11.7578 62.8867 11.7578H67C67.2812 11.7578 67.498 11.8105 67.6504 11.916C67.8027 12.0098 67.9141 12.1855 67.9844 12.4434C68.0664 12.7012 68.1074 13.0762 68.1074 13.5684C68.1074 14.0605 68.0664 14.4355 67.9844 14.6934C67.9141 14.9512 67.8027 15.127 67.6504 15.2207C67.498 15.3145 67.2812 15.3613 67 15.3613H65.4707V27.9824C65.4707 30.2793 64.7793 32.0547 63.3965 33.3086C62.0254 34.5742 59.9688 35.207 57.2266 35.207C56.2188 35.207 55.1172 35.1074 53.9219 34.9082C52.7266 34.7207 51.584 34.457 50.4941 34.1172C49.9316 33.9414 49.6504 33.5371 49.6504 32.9043C49.6504 32.623 49.7266 32.2129 49.8789 31.6738C50.0547 31.123 50.248 30.7246 50.459 30.4785C50.6816 30.2324 50.9395 30.1094 51.2324 30.1094C51.3848 30.1094 51.5254 30.1328 51.6543 30.1797C53.8926 30.8711 55.6914 31.2168 57.0508 31.2168C58.4688 31.2168 59.4941 30.918 60.127 30.3203C60.7598 29.7344 61.0762 28.8379 61.0762 27.6309V25.8379C60.4785 26.4824 59.7871 26.9805 59.002 27.332C58.2168 27.6836 57.3672 27.8594 56.4531 27.8594C54.9414 27.8594 53.6113 27.5078 52.4629 26.8047C51.3145 26.0898 50.4297 25.1113 49.8086 23.8691C49.1875 22.6152 48.877 21.1973 48.877 19.6152C48.877 18.0332 49.1875 16.6211 49.8086 15.3789C50.4297 14.125 51.3145 13.1465 52.4629 12.4434C53.6113 11.7285 54.9414 11.3711 56.4531 11.3711ZM57.1562 15.3613C56.0664 15.3613 55.1992 15.7363 54.5547 16.4863C53.9102 17.2246 53.5879 18.2676 53.5879 19.6152C53.5879 20.9629 53.9102 22.0117 54.5547 22.7617C55.1992 23.5 56.0664 23.8691 57.1562 23.8691C57.9062 23.8691 58.5859 23.7109 59.1953 23.3945C59.8164 23.0664 60.3027 22.5859 60.6543 21.9531C61.0176 21.3086 61.1992 20.5293 61.1992 19.6152C61.1992 18.7012 61.0176 17.9277 60.6543 17.2949C60.3027 16.6504 59.8164 16.1699 59.1953 15.8535C58.5859 15.5254 57.9062 15.3613 57.1562 15.3613ZM80.8867 11.7578C81.2852 11.7578 81.5664 11.8457 81.7305 12.0215C81.9062 12.1855 81.9941 12.4668 81.9941 12.8652V24.3965H86.9336C87.2148 24.3965 87.4316 24.4492 87.584 24.5547C87.7363 24.6484 87.8477 24.8242 87.918 25.082C88 25.3398 88.041 25.7148 88.041 26.207C88.041 26.6992 88 27.0742 87.918 27.332C87.8477 27.5898 87.7363 27.7656 87.584 27.8594C87.4316 27.9531 87.2148 28 86.9336 28H72.8008C72.5195 28 72.3027 27.9531 72.1504 27.8594C71.998 27.7656 71.8809 27.5898 71.7988 27.332C71.7285 27.0742 71.6934 26.6992 71.6934 26.207C71.6934 25.7148 71.7285 25.3398 71.7988 25.082C71.8809 24.8242 71.998 24.6484 72.1504 24.5547C72.3027 24.4492 72.5195 24.3965 72.8008 24.3965H77.5996V15.3613H73.8555C73.5742 15.3613 73.3574 15.3145 73.2051 15.2207C73.0527 15.127 72.9355 14.9512 72.8535 14.6934C72.7832 14.4355 72.748 14.0605 72.748 13.5684C72.748 13.0762 72.7832 12.7012 72.8535 12.4434C72.9355 12.1855 73.0527 12.0098 73.2051 11.916C73.3574 11.8105 73.5742 11.7578 73.8555 11.7578H80.8867ZM79.7441 4.04102C80.5762 4.04102 81.1562 4.12891 81.4844 4.30469C81.8242 4.46875 81.9941 4.75 81.9941 5.14844V8.03125C81.9941 8.42969 81.8359 8.7168 81.5195 8.89258C81.2148 9.05664 80.6523 9.13867 79.832 9.13867C79.0117 9.13867 78.4316 9.05664 78.0918 8.89258C77.7637 8.7168 77.5996 8.42969 77.5996 8.03125V5.14844C77.5996 4.73828 77.752 4.45117 78.0566 4.28711C78.3613 4.12305 78.9238 4.04102 79.7441 4.04102ZM106.27 11.3711C107.02 11.3711 107.553 11.459 107.869 11.6348C108.186 11.7988 108.344 12.0801 108.344 12.4785V16.1875C108.344 16.5859 108.215 16.873 107.957 17.0488C107.711 17.2129 107.301 17.2949 106.727 17.2949C106.105 17.2949 105.678 17.1719 105.443 16.9258C104.752 16.1875 103.961 15.666 103.07 15.3613C102.18 15.0449 101.148 14.8867 99.9766 14.8867C99.2852 14.8867 98.7402 15.0098 98.3418 15.2559C97.9551 15.502 97.7617 15.8301 97.7617 16.2402C97.7617 16.7324 98.1953 17.084 99.0625 17.2949C99.5195 17.4121 100.299 17.5234 101.4 17.6289C102.49 17.7578 103.393 17.8867 104.107 18.0156C104.834 18.1445 105.52 18.3379 106.164 18.5957C107.102 18.9824 107.834 19.5215 108.361 20.2129C108.889 20.9043 109.152 21.8184 109.152 22.9551C109.152 24.0684 108.877 25.0352 108.326 25.8555C107.787 26.6641 106.99 27.291 105.936 27.7363C104.893 28.1699 103.633 28.3867 102.156 28.3867C100.527 28.3867 99.0156 27.9707 97.6211 27.1387V27.2793C97.6211 27.6777 97.4512 27.959 97.1113 28.123C96.7715 28.2988 96.2266 28.3867 95.4766 28.3867C94.7266 28.3867 94.1934 28.2988 93.877 28.123C93.5605 27.959 93.4023 27.6777 93.4023 27.2793V23.3594C93.4023 22.9727 93.5371 22.6914 93.8066 22.5156C94.0879 22.3398 94.5156 22.252 95.0898 22.252C95.8047 22.252 96.291 22.416 96.5488 22.7441C97.1348 23.4824 97.8848 24.0215 98.7988 24.3613C99.7129 24.7012 100.715 24.8711 101.805 24.8711C103.68 24.8711 104.617 24.3848 104.617 23.4121C104.617 23.1191 104.482 22.8848 104.213 22.709C103.955 22.5332 103.568 22.3867 103.053 22.2695C102.76 22.2109 102.08 22.1055 101.014 21.9531C99.8301 21.8125 98.8105 21.6543 97.9551 21.4785C97.1113 21.291 96.3438 21.0039 95.6523 20.6172C94.0352 19.7266 93.2266 18.3203 93.2266 16.3984C93.2266 15.3789 93.502 14.4883 94.0527 13.7266C94.6035 12.9648 95.3594 12.3848 96.3203 11.9863C97.293 11.5762 98.3828 11.3711 99.5898 11.3711C101.359 11.3711 102.93 11.7988 104.301 12.6543V12.4785C104.301 12.0801 104.441 11.7988 104.723 11.6348C105.016 11.459 105.531 11.3711 106.27 11.3711ZM12.5254 46.748C13.0762 46.748 13.498 46.7891 13.791 46.8711C14.0957 46.9414 14.3066 47.0527 14.4238 47.2051C14.541 47.3574 14.5996 47.5742 14.5996 47.8555V52.8125H21.1211C21.5312 52.8125 21.8184 52.9473 21.9824 53.2168C22.1465 53.4863 22.2285 53.9844 22.2285 54.7109C22.2285 55.4375 22.1465 55.9355 21.9824 56.2051C21.8184 56.4629 21.5312 56.5918 21.1211 56.5918H14.5996V61.4785C14.5996 63.4238 15.3555 64.3965 16.8672 64.3965C17.4062 64.3965 18.0332 64.2793 18.748 64.0449C19.4746 63.7988 20.3184 63.459 21.2793 63.0254C21.5371 62.9199 21.7422 62.8672 21.8945 62.8672C22.1406 62.8672 22.3691 62.9727 22.5801 63.1836C22.791 63.3828 22.9902 63.7168 23.1777 64.1855C23.3887 64.7129 23.4941 65.1406 23.4941 65.4688C23.4941 65.7266 23.4297 65.9434 23.3008 66.1191C23.1836 66.2832 23.002 66.4297 22.7559 66.5586C20.3418 67.7773 18.25 68.3867 16.4805 68.3867C14.4414 68.3867 12.8828 67.8184 11.8047 66.6816C10.7383 65.5449 10.2051 63.8867 10.2051 61.707V56.5918H6.8125C6.40234 56.5918 6.11523 56.4629 5.95117 56.2051C5.78711 55.9355 5.70508 55.4375 5.70508 54.7109C5.70508 53.9844 5.78711 53.4863 5.95117 53.2168C6.11523 52.9473 6.40234 52.8125 6.8125 52.8125H10.2051V47.8555C10.2051 47.457 10.3809 47.1758 10.7324 47.0117C11.0957 46.8359 11.6934 46.748 12.5254 46.748ZM37.7148 51.7578C38.1133 51.7578 38.3945 51.8457 38.5586 52.0215C38.7344 52.1855 38.8223 52.4668 38.8223 52.8652V64.3965H43.7617C44.043 64.3965 44.2598 64.4492 44.4121 64.5547C44.5645 64.6484 44.6758 64.8242 44.7461 65.082C44.8281 65.3398 44.8691 65.7148 44.8691 66.207C44.8691 66.6992 44.8281 67.0742 44.7461 67.332C44.6758 67.5898 44.5645 67.7656 44.4121 67.8594C44.2598 67.9531 44.043 68 43.7617 68H29.6289C29.3477 68 29.1309 67.9531 28.9785 67.8594C28.8262 67.7656 28.709 67.5898 28.627 67.332C28.5566 67.0742 28.5215 66.6992 28.5215 66.207C28.5215 65.7148 28.5566 65.3398 28.627 65.082C28.709 64.8242 28.8262 64.6484 28.9785 64.5547C29.1309 64.4492 29.3477 64.3965 29.6289 64.3965H34.4277V55.3613H30.6836C30.4023 55.3613 30.1855 55.3145 30.0332 55.2207C29.8809 55.127 29.7637 54.9512 29.6816 54.6934C29.6113 54.4355 29.5762 54.0605 29.5762 53.5684C29.5762 53.0762 29.6113 52.7012 29.6816 52.4434C29.7637 52.1855 29.8809 52.0098 30.0332 51.916C30.1855 51.8105 30.4023 51.7578 30.6836 51.7578H37.7148ZM36.5723 44.041C37.4043 44.041 37.9844 44.1289 38.3125 44.3047C38.6523 44.4688 38.8223 44.75 38.8223 45.1484V48.0312C38.8223 48.4297 38.6641 48.7168 38.3477 48.8926C38.043 49.0566 37.4805 49.1387 36.6602 49.1387C35.8398 49.1387 35.2598 49.0566 34.9199 48.8926C34.5918 48.7168 34.4277 48.4297 34.4277 48.0312V45.1484C34.4277 44.7383 34.5801 44.4512 34.8848 44.2871C35.1895 44.123 35.752 44.041 36.5723 44.041ZM58.2109 51.3711C59.9922 51.3711 61.5098 51.7578 62.7637 52.5312C64.0176 53.293 64.9609 54.3594 65.5938 55.7305C66.2383 57.0898 66.5605 58.6484 66.5605 60.4062C66.5605 60.8047 66.4727 61.0859 66.2969 61.25C66.1328 61.4141 65.8516 61.4961 65.4531 61.4961H54.168C54.3906 62.4336 54.8652 63.1543 55.5918 63.6582C56.3301 64.1504 57.2617 64.3965 58.3867 64.3965C60.2031 64.3965 62.1719 64.0742 64.293 63.4297C64.4336 63.3828 64.5742 63.3594 64.7148 63.3594C64.9727 63.3594 65.1953 63.4766 65.3828 63.7109C65.5703 63.9453 65.7402 64.3438 65.8926 64.9062C66.0098 65.3398 66.0684 65.709 66.0684 66.0137C66.0684 66.3184 65.998 66.5586 65.8574 66.7344C65.7285 66.8984 65.5117 67.0332 65.207 67.1387C64.0352 67.5254 62.8398 67.8301 61.6211 68.0527C60.4023 68.2754 59.207 68.3867 58.0352 68.3867C56.2539 68.3867 54.7188 68.0234 53.4297 67.2969C52.1406 66.5703 51.1562 65.5684 50.4766 64.291C49.8086 63.002 49.4746 61.5312 49.4746 59.8789C49.4746 58.2383 49.8262 56.7734 50.5293 55.4844C51.2324 54.1953 52.2461 53.1875 53.5703 52.4609C54.8945 51.7344 56.4414 51.3711 58.2109 51.3711ZM58.2109 55.3613C56.0664 55.3613 54.7422 56.2637 54.2383 58.0684H61.9727C61.7734 57.2129 61.3457 56.5508 60.6895 56.082C60.0449 55.6016 59.2188 55.3613 58.2109 55.3613ZM88.1992 64.3965C88.6094 64.3965 88.8965 64.5195 89.0605 64.7656C89.2246 65.0117 89.3066 65.4922 89.3066 66.207C89.3066 66.6992 89.2656 67.0742 89.1836 67.332C89.1133 67.5898 89.002 67.7656 88.8496 67.8594C88.6973 67.9531 88.4805 68 88.1992 68H85.1934C84.6074 68 84.1504 67.7656 83.8223 67.2969L79.3926 61.1445L76.9668 62.9902V64.3965H78.4961C78.7773 64.3965 78.9941 64.4492 79.1465 64.5547C79.2988 64.6484 79.4102 64.8242 79.4805 65.082C79.5625 65.3398 79.6035 65.7148 79.6035 66.207C79.6035 66.6992 79.5625 67.0742 79.4805 67.332C79.4102 67.5898 79.2988 67.7656 79.1465 67.8594C78.9941 67.9531 78.7773 68 78.4961 68H71.2188C70.9375 68 70.7207 67.9531 70.5684 67.8594C70.416 67.7656 70.2988 67.5898 70.2168 67.332C70.1465 67.0742 70.1113 66.6992 70.1113 66.207C70.1113 65.7148 70.1465 65.3398 70.2168 65.082C70.2988 64.8242 70.416 64.6484 70.5684 64.5547C70.7207 64.4492 70.9375 64.3965 71.2188 64.3965H72.5723V48.541H70.8672C70.5859 48.541 70.3691 48.4941 70.2168 48.4004C70.0645 48.3066 69.9473 48.1309 69.8652 47.873C69.7949 47.6152 69.7598 47.2402 69.7598 46.748C69.7598 46.2559 69.7949 45.8809 69.8652 45.623C69.9473 45.3652 70.0645 45.1895 70.2168 45.0957C70.3691 44.9902 70.5859 44.9375 70.8672 44.9375H75.8594C76.2578 44.9375 76.5391 45.0254 76.7031 45.2012C76.8789 45.3652 76.9668 45.6465 76.9668 46.0449V58.7363L81.5371 55.0098H80.6582C80.248 55.0098 79.9609 54.8984 79.7969 54.6758C79.6328 54.4531 79.5508 54.0254 79.5508 53.3926C79.5508 52.748 79.6328 52.3145 79.7969 52.0918C79.9609 51.8691 80.248 51.7578 80.6582 51.7578H87.9355C88.3457 51.7578 88.6328 51.8691 88.7969 52.0918C88.9609 52.3145 89.043 52.748 89.043 53.3926C89.043 54.0254 88.9609 54.4531 88.7969 54.6758C88.6328 54.8984 88.3457 55.0098 87.9355 55.0098H87.2324L82.8555 58.543L87.127 64.3965H88.1992ZM14.5996 91.3711C17.1777 91.3711 19.041 91.9277 20.1895 93.041C21.3379 94.1543 21.9121 95.748 21.9121 97.8223V102.902C21.9121 103.371 22.0117 103.74 22.2109 104.01C22.4102 104.268 22.6973 104.396 23.0723 104.396H23.6172C23.8984 104.396 24.1152 104.449 24.2676 104.555C24.4199 104.648 24.5312 104.824 24.6016 105.082C24.6836 105.34 24.7246 105.715 24.7246 106.207C24.7246 106.699 24.6836 107.074 24.6016 107.332C24.5312 107.59 24.4199 107.766 24.2676 107.859C24.1152 107.953 23.8984 108 23.6172 108H21.6484C20.9219 108 20.2773 107.854 19.7148 107.561C19.1641 107.256 18.7422 106.781 18.4492 106.137C17.5234 106.852 16.5449 107.408 15.5137 107.807C14.4824 108.193 13.4219 108.387 12.332 108.387C11.0078 108.387 9.86523 108.164 8.9043 107.719C7.94336 107.262 7.20508 106.617 6.68945 105.785C6.18555 104.941 5.93359 103.951 5.93359 102.814C5.93359 101.174 6.51367 99.9023 7.67383 99C8.83398 98.0977 10.457 97.6465 12.543 97.6465C14.1016 97.6465 15.7598 97.8223 17.5176 98.1738V97.6641C17.5176 96.8789 17.2715 96.2988 16.7793 95.9238C16.2871 95.5488 15.4199 95.3613 14.1777 95.3613C13.4863 95.3613 12.7129 95.4492 11.8574 95.625C11.0137 95.7891 10.1758 96.0117 9.34375 96.293C9.14453 96.3516 8.97461 96.3809 8.83398 96.3809C8.54102 96.3809 8.27734 96.2754 8.04297 96.0645C7.82031 95.8418 7.61523 95.4727 7.42773 94.957C7.25195 94.4414 7.16406 94.0195 7.16406 93.6914C7.16406 93.0938 7.43359 92.6953 7.97266 92.4961C9.01562 92.1211 10.123 91.8398 11.2949 91.6523C12.4668 91.4648 13.5684 91.3711 14.5996 91.3711ZM12.9824 101.268C12.1621 101.268 11.5352 101.414 11.1016 101.707C10.6797 102 10.4688 102.428 10.4688 102.99C10.4688 103.541 10.6738 103.963 11.084 104.256C11.5059 104.537 12.1094 104.678 12.8945 104.678C13.7031 104.678 14.5 104.52 15.2852 104.203C16.082 103.875 16.8262 103.43 17.5176 102.867V101.742C15.9707 101.426 14.459 101.268 12.9824 101.268ZM37.8906 91.3711C39.4258 91.3711 40.7676 91.7461 41.916 92.4961C43.0645 93.2461 43.9434 94.2656 44.5527 95.5547C45.1621 96.8438 45.4668 98.2852 45.4668 99.8789C45.4668 101.473 45.1621 102.914 44.5527 104.203C43.9434 105.492 43.0645 106.512 41.916 107.262C40.7676 108.012 39.4258 108.387 37.8906 108.387C36.9766 108.387 36.127 108.211 35.3418 107.859C34.5566 107.496 33.8652 106.98 33.2676 106.312V111.217H36.2031C36.4844 111.217 36.7012 111.264 36.8535 111.357C37.0059 111.451 37.1172 111.627 37.1875 111.885C37.2695 112.143 37.3105 112.518 37.3105 113.01C37.3105 113.502 37.2695 113.877 37.1875 114.135C37.1172 114.393 37.0059 114.568 36.8535 114.662C36.7012 114.768 36.4844 114.82 36.2031 114.82H27.3438C27.0625 114.82 26.8457 114.773 26.6934 114.68C26.541 114.586 26.4238 114.41 26.3418 114.152C26.2715 113.895 26.2363 113.52 26.2363 113.027C26.2363 112.535 26.2715 112.16 26.3418 111.902C26.4238 111.645 26.541 111.463 26.6934 111.357C26.8457 111.264 27.0625 111.217 27.3438 111.217H28.873V95.3613H27.3438C27.0625 95.3613 26.8457 95.3145 26.6934 95.2207C26.541 95.127 26.4238 94.9512 26.3418 94.6934C26.2715 94.4355 26.2363 94.0605 26.2363 93.5684C26.2363 93.0762 26.2715 92.7012 26.3418 92.4434C26.4238 92.1855 26.541 92.0098 26.6934 91.916C26.8457 91.8105 27.0625 91.7578 27.3438 91.7578H31.457C31.8555 91.7578 32.1367 91.8457 32.3008 92.0215C32.4766 92.1855 32.5645 92.4668 32.5645 92.8652V94.3418C33.1738 93.4043 33.9355 92.6777 34.8496 92.1621C35.7637 91.6348 36.7773 91.3711 37.8906 91.3711ZM37.1875 95.3613C36.4375 95.3613 35.7578 95.5371 35.1484 95.8887C34.5391 96.2402 34.0527 96.7617 33.6895 97.4531C33.3262 98.1328 33.1445 98.9414 33.1445 99.8789C33.1445 100.816 33.3262 101.631 33.6895 102.322C34.0527 103.002 34.5391 103.518 35.1484 103.869C35.7578 104.221 36.4375 104.396 37.1875 104.396C37.9141 104.396 38.5469 104.215 39.0859 103.852C39.625 103.477 40.0352 102.949 40.3164 102.27C40.6094 101.59 40.7559 100.793 40.7559 99.8789C40.7559 98.9648 40.6094 98.168 40.3164 97.4883C40.0352 96.8086 39.625 96.2871 39.0859 95.9238C38.5469 95.5488 37.9141 95.3613 37.1875 95.3613ZM59.4766 91.3711C61.0117 91.3711 62.3535 91.7461 63.502 92.4961C64.6504 93.2461 65.5293 94.2656 66.1387 95.5547C66.748 96.8438 67.0527 98.2852 67.0527 99.8789C67.0527 101.473 66.748 102.914 66.1387 104.203C65.5293 105.492 64.6504 106.512 63.502 107.262C62.3535 108.012 61.0117 108.387 59.4766 108.387C58.5625 108.387 57.7129 108.211 56.9277 107.859C56.1426 107.496 55.4512 106.98 54.8535 106.312V111.217H57.7891C58.0703 111.217 58.2871 111.264 58.4395 111.357C58.5918 111.451 58.7031 111.627 58.7734 111.885C58.8555 112.143 58.8965 112.518 58.8965 113.01C58.8965 113.502 58.8555 113.877 58.7734 114.135C58.7031 114.393 58.5918 114.568 58.4395 114.662C58.2871 114.768 58.0703 114.82 57.7891 114.82H48.9297C48.6484 114.82 48.4316 114.773 48.2793 114.68C48.127 114.586 48.0098 114.41 47.9277 114.152C47.8574 113.895 47.8223 113.52 47.8223 113.027C47.8223 112.535 47.8574 112.16 47.9277 111.902C48.0098 111.645 48.127 111.463 48.2793 111.357C48.4316 111.264 48.6484 111.217 48.9297 111.217H50.459V95.3613H48.9297C48.6484 95.3613 48.4316 95.3145 48.2793 95.2207C48.127 95.127 48.0098 94.9512 47.9277 94.6934C47.8574 94.4355 47.8223 94.0605 47.8223 93.5684C47.8223 93.0762 47.8574 92.7012 47.9277 92.4434C48.0098 92.1855 48.127 92.0098 48.2793 91.916C48.4316 91.8105 48.6484 91.7578 48.9297 91.7578H53.043C53.4414 91.7578 53.7227 91.8457 53.8867 92.0215C54.0625 92.1855 54.1504 92.4668 54.1504 92.8652V94.3418C54.7598 93.4043 55.5215 92.6777 56.4355 92.1621C57.3496 91.6348 58.3633 91.3711 59.4766 91.3711ZM58.7734 95.3613C58.0234 95.3613 57.3438 95.5371 56.7344 95.8887C56.125 96.2402 55.6387 96.7617 55.2754 97.4531C54.9121 98.1328 54.7305 98.9414 54.7305 99.8789C54.7305 100.816 54.9121 101.631 55.2754 102.322C55.6387 103.002 56.125 103.518 56.7344 103.869C57.3438 104.221 58.0234 104.396 58.7734 104.396C59.5 104.396 60.1328 104.215 60.6719 103.852C61.2109 103.477 61.6211 102.949 61.9023 102.27C62.1953 101.59 62.3418 100.793 62.3418 99.8789C62.3418 98.9648 62.1953 98.168 61.9023 97.4883C61.6211 96.8086 61.2109 96.2871 60.6719 95.9238C60.1328 95.5488 59.5 95.3613 58.7734 95.3613Z" fill="#120D31"/>
</svg>
